<svg xmlns="http://www.w3.org/2000/svg" viewBox="0 0 200 400" fill="#b7c0ff">
  <path d="M84 24c-24 4-38 26-36 52 2 20 10 34 24 42 2 6-1 12-6 16-7 8-2 20 12 24l10 4c-2 20 8 42 30 50 18 6 34 2 42-10 6-16 2-36-6-48 16-8 24-28 16-48-8-18-22-26-34-44C114 28 96 22 84 24z"/>
  <path d="M68 198c-8 22-6 42 6 50h74c12-8 14-30 4-50-8-6-26-12-42-12s-34 6-42 12z"/>
  <ellipse cx="108" cy="262" rx="54" ry="11"/>
  <path d="M68 262h80v14H68z"/>
  <path d="M54 276h108v14H54z"/>
  <path d="M76 290h64v76H76z"/>
  <path d="M62 366h92v16H62z"/>
</svg>
